<svg xmlns="http://www.w3.org/2000/svg" width="148mm" height="148mm" viewBox="0 0 524.40927 524.4091"><path d="M178.797 83.983c19.976-45.495 72.084-41.558 93.692-10.102 23.056-41.098 100.513-23.687 92.42 31.323 78.142-39.011 123.943 61.072 43.198 79.016-.104 6.33-2.101 21.731-16.063 29.965 2.622 5.561 8.137 16.825 5.234 31.24 40.912 43.464 5.848 115.434-57.41 98.712-11.696 33.186-62.444 38.522-87.76 10.207-38.495 25.34-61.442 24.262-90.308-2.578-28.465 11.318-71.559-11.342-72.317-43.398-28.73-10.204-49.572-33.082-38.39-73.619-34.111-20.516-36.224-94.074 40.294-98.377.045-73.906 66.67-71.172 87.41-52.39z" fill="none" stroke="#000" stroke-width="41.1" stroke-linejoin="round"/><path d="M347.1 158.96c-54.257.737-46.028 44.047-33.917 57.118 7.392 7.978 18.752 12.007 20.086 3.67 3.18-19.875 3.613-32.653 8.83-39.001 7.395-8.998 25.572-19.93 5-21.786z" fill-rule="evenodd" stroke="#000"/><path d="M77.814 311.46c.097 4.74 7.69 29.628 8.848 42.888 2.552 29.213 2.386 67.182 2.96 80.986 0 0-.25 13.61 7.12 22.913M149.357 355.9s3.321 72.897 10.691 82.2" fill-rule="evenodd" stroke="#000" stroke-width="41" stroke-linecap="round" stroke-linejoin="round"/><path d="M317.11 371.344c2.553 29.212 6.672 70.039 7.247 83.843 0 0-.964 16.467 6.405 25.77m48.134-128.541c2.553 29.212 8.1 67.895 8.675 81.7 0 0-.25 13.61 7.12 22.912" fill="red" fill-rule="evenodd" stroke="#000" stroke-width="41" stroke-linecap="round" stroke-linejoin="round"/><path style="line-height:normal;text-indent:0;text-align:start;text-decoration-line:none;text-decoration-style:solid;text-decoration-color:#000;text-transform:none;block-progression:tb;isolation:auto;mix-blend-mode:normal" d="M448.721 156.601c-7.127.443-13.938 5.234-20.857 14.198-7.908 10.243-16.038 25.985-25.153 47.251-9.162 21.379-5.539 37.863 6.508 48.186s32.359 14.51 56.508 11.793c7.795-.877 14.896-2.593 20.166-5.27 5.073-2.576 8.421-6.125 8.932-10.642 9.334 1.938 15.909-1.09 19.498-7.328 3.656-6.354 4.344-15.85 2.4-26.608-3.887-21.512-18.367-48.133-41.828-64.623 0 0-1.767-1.295-5.514-2.785-3.746-1.49-9.505-3.198-17.584-4.096a17.81 17.81 0 0 0-3.076-.076zm27.456 34.349c.321 6.046-7.088 13.42-13.086 12.596-6.556-.9-14.698-9.79-10.064-17.11 6.287-9.93 21.266-13.222 23.15 4.514z" color="#000" font-weight="400" font-family="sans-serif" white-space="normal" overflow="visible" fill-rule="evenodd"/></svg>