<?xml version="1.0" encoding="UTF-8" standalone="no"?>
<!-- Created with Inkscape (http://www.inkscape.org/) -->

<svg
   xmlns:dc="http://purl.org/dc/elements/1.1/"
   xmlns:cc="http://creativecommons.org/ns#"
   xmlns:rdf="http://www.w3.org/1999/02/22-rdf-syntax-ns#"
   xmlns:svg="http://www.w3.org/2000/svg"
   xmlns="http://www.w3.org/2000/svg"
   xmlns:sodipodi="http://sodipodi.sourceforge.net/DTD/sodipodi-0.dtd"
   xmlns:inkscape="http://www.inkscape.org/namespaces/inkscape"
   width="149mm"
   height="140mm"
   viewBox="0 0 527.95258 496.0627"
   id="svg2"
   version="1.1"
   inkscape:version="0.91 r13725"
   sodipodi:docname="sheep.svg">
  <defs
     id="defs4" />
  <sodipodi:namedview
     id="base"
     pagecolor="#ffffff"
     bordercolor="#666666"
     borderopacity="1.0"
     inkscape:pageopacity="0.0"
     inkscape:pageshadow="2"
     inkscape:zoom="0.98994949"
     inkscape:cx="100.94679"
     inkscape:cy="478.57132"
     inkscape:document-units="px"
     inkscape:current-layer="layer1"
     showgrid="false"
     inkscape:window-width="2560"
     inkscape:window-height="1376"
     inkscape:window-x="0"
     inkscape:window-y="27"
     inkscape:window-maximized="1" />
  <metadata
     id="metadata7">
    <rdf:RDF>
      <cc:Work
         rdf:about="">
        <dc:format>image/svg+xml</dc:format>
        <dc:type
           rdf:resource="http://purl.org/dc/dcmitype/StillImage" />
        <dc:title></dc:title>
      </cc:Work>
    </rdf:RDF>
  </metadata>
  <g
     inkscape:label="Layer 1"
     inkscape:groupmode="layer"
     id="layer1"
     transform="translate(0,-556.29959)">
    <path
       style="fill:none;fill-rule:evenodd;stroke:#000000;stroke-width:41.09999847;stroke-linecap:butt;stroke-linejoin:round;stroke-miterlimit:4;stroke-dasharray:none;stroke-opacity:1"
       d="m 178.79702,627.08798 c 19.97608,-45.49453 72.08418,-41.55786 93.69165,-10.10153 23.05651,-41.09784 100.51315,-23.68662 92.41949,31.32326 78.14253,-39.01144 123.94338,61.07204 43.19919,79.01547 -0.10397,6.33085 -2.1017,21.73138 -16.06376,29.9649 2.62272,5.56181 8.13735,16.8257 5.23448,31.24082 40.9119,43.46366 5.84807,115.43379 -57.41078,98.71106 -11.69578,33.18628 -62.44333,38.52292 -87.76003,10.2072 -38.49423,25.34033 -61.44162,24.26221 -90.30772,-2.57795 -28.46479,11.31844 -71.558311,-11.34152 -72.316221,-43.39783 -28.73075,-10.20439 -49.57236,-33.08172 -38.39108,-73.6187 -34.11038,-20.51627 -36.2233,-94.07382 40.29437,-98.37683 0.0453,-73.90608 66.670731,-71.17197 87.410411,-52.38987 z"
       id="path3351"
       inkscape:connector-curvature="0"
       sodipodi:nodetypes="ccccccccccccc" />
    <path
       style="fill:#000000;fill-rule:evenodd;stroke:#000000;stroke-width:1px;stroke-linecap:butt;stroke-linejoin:miter;stroke-opacity:1"
       d="m 347.09933,702.06633 c -54.25586,0.73572 -46.02747,44.04615 -33.91671,57.11687 7.39252,7.9785 18.7521,12.00736 20.08599,3.67035 3.17995,-19.87499 3.61304,-32.65316 8.83072,-39.00151 7.39503,-8.99752 25.57174,-19.92957 5,-21.78571 z"
       id="path4157"
       inkscape:connector-curvature="0"
       sodipodi:nodetypes="csssc" />
    <path
       style="fill:#000000;fill-rule:evenodd;stroke:#000000;stroke-width:41;stroke-linecap:round;stroke-linejoin:round;stroke-miterlimit:4;stroke-dasharray:none;stroke-opacity:1"
       d="m 77.813619,854.56633 c 0.0977,4.7392 7.68949,29.62685 8.8482,42.88755 2.55256,29.21217 2.38574,67.18136 2.96058,80.98527 0,0 -0.24976,13.61003 7.119789,22.91275"
       id="path4159"
       inkscape:connector-curvature="0"
       sodipodi:nodetypes="cssc" />
    <path
       style="fill:#000000;fill-rule:evenodd;stroke:#000000;stroke-width:41;stroke-linecap:round;stroke-linejoin:round;stroke-miterlimit:4;stroke-dasharray:none;stroke-opacity:1"
       d="m 149.35679,899.0062 c 0,0 3.32167,72.89581 10.69122,82.19851"
       id="path4159-7"
       inkscape:connector-curvature="0"
       sodipodi:nodetypes="cc" />
    <path
       style="fill:#ff0000;fill-rule:evenodd;stroke:#000000;stroke-width:41;stroke-linecap:round;stroke-linejoin:round;stroke-miterlimit:4;stroke-dasharray:none;stroke-opacity:1"
       d="m 317.11051,914.44951 c 2.55256,29.21217 6.67146,70.03852 7.2463,83.84252 0,0 -0.96405,16.46707 6.4055,25.76987"
       id="path4159-6"
       inkscape:connector-curvature="0"
       sodipodi:nodetypes="csc" />
    <path
       style="fill:#ff0000;fill-rule:evenodd;stroke:#000000;stroke-width:41;stroke-linecap:round;stroke-linejoin:round;stroke-miterlimit:4;stroke-dasharray:none;stroke-opacity:1"
       d="m 378.89622,895.52095 c 2.55256,29.21217 8.10003,67.89565 8.67487,81.69956 0,0 -0.24976,13.61006 7.11979,22.91269"
       id="path4159-2"
       inkscape:connector-curvature="0"
       sodipodi:nodetypes="csc" />
    <path
       style="color:#000000;font-style:normal;font-variant:normal;font-weight:normal;font-stretch:normal;font-size:medium;line-height:normal;font-family:sans-serif;text-indent:0;text-align:start;text-decoration:none;text-decoration-line:none;text-decoration-style:solid;text-decoration-color:#000000;letter-spacing:normal;word-spacing:normal;text-transform:none;direction:ltr;block-progression:tb;writing-mode:lr-tb;baseline-shift:baseline;text-anchor:start;white-space:normal;clip-rule:nonzero;display:inline;overflow:visible;visibility:visible;opacity:1;isolation:auto;mix-blend-mode:normal;color-interpolation:sRGB;color-interpolation-filters:linearRGB;solid-color:#000000;solid-opacity:1;fill:#000000;fill-opacity:1;fill-rule:evenodd;stroke:none;stroke-width:1px;stroke-linecap:butt;stroke-linejoin:miter;stroke-miterlimit:4;stroke-dasharray:none;stroke-dashoffset:0;stroke-opacity:1;color-rendering:auto;image-rendering:auto;shape-rendering:auto;text-rendering:auto;enable-background:accumulate"
       d="m 448.72126,699.70664 c -7.12767,0.44288 -13.93848,5.23408 -20.85742,14.19726 -7.90737,10.24364 -16.03794,25.98502 -25.15235,47.25196 -9.16209,21.37821 -5.53934,37.86221 6.50782,48.18554 12.04715,10.32334 32.35825,14.50936 56.50781,11.79297 7.79495,-0.87679 14.89599,-2.59328 20.16601,-5.26953 5.0728,-2.57609 8.42123,-6.12505 8.93165,-10.64258 9.33418,1.93788 15.90881,-1.09053 19.49804,-7.32812 3.65621,-6.35398 4.34441,-15.85005 2.40039,-26.60742 -3.88759,-21.5123 -18.36721,-48.13286 -41.82812,-64.62305 0,0 -1.76677,-1.29543 -5.51367,-2.78516 -3.7469,-1.48973 -9.50504,-3.19804 -17.58399,-4.0957 -1.03239,-0.11471 -2.05793,-0.13944 -3.07617,-0.0762 z m 27.45615,34.34833 c 0.32066,6.04631 -7.08826,13.42021 -13.08683,12.59688 -6.55538,-0.89975 -14.69726,-9.79095 -10.06367,-17.11038 6.28666,-9.9307 21.26572,-13.22251 23.1505,4.5135 z"
       id="path4188"
       inkscape:connector-curvature="0"
       sodipodi:nodetypes="cssssscsscsscccasc" />
  </g>
</svg>
